<?xml version="1.0" encoding="utf-8"?>
<!-- Generator: Adobe Illustrator 28.2.0, SVG Export Plug-In . SVG Version: 6.00 Build 0)  -->
<svg version="1.1" id="Layer_1" xmlns="http://www.w3.org/2000/svg" x="0px" y="0px"
	 viewBox="0 0 1500 500" xml:space="preserve" fill="none">
<style type="text/css">
	.sol{fill:currentColor;color:#072141;}
	.c52{fill:url(#sol52-52-fill);}
	.dot{fill:url(#sol52-dot-radial);filter:none;}
	.dot-flare{opacity:0.5;mix-blend-mode:overlay;}
	.tag{fill:currentColor;color:#0f5c56;}
	@media (prefers-color-scheme: dark) {
		.tag{color:#14b8a6;}
		.dot{filter:drop-shadow(0 0 2px rgba(254,243,199,0.32)) drop-shadow(0 0 7px rgba(251,191,36,0.14)) drop-shadow(0 0 13px rgba(245,158,11,0.05));}
		.dot-flare{opacity:0.92;}
	}
</style>
<defs>
	<radialGradient id="sol52-dot-radial" cx="0.42" cy="0.38" r="0.58" gradientUnits="objectBoundingBox">
		<stop offset="0%" style="stop-color:#FFFFFB"/>
		<stop offset="22%" style="stop-color:#FEF9C3"/>
		<stop offset="48%" style="stop-color:#FDE047"/>
		<stop offset="78%" style="stop-color:#FBBF24"/>
		<stop offset="100%" style="stop-color:#F59E0B"/>
	</radialGradient>
	<linearGradient id="sol52-52-fill" x1="915" y1="248" x2="1328" y2="248" gradientUnits="userSpaceOnUse">
		<stop offset="0%" style="stop-color:#ECFCCB"/>
		<stop offset="18%" style="stop-color:#D9F99D"/>
		<stop offset="38%" style="stop-color:#BEF264"/>
		<stop offset="58%" style="stop-color:#34D399"/>
		<stop offset="82%" style="stop-color:#0D9488"/>
		<stop offset="100%" style="stop-color:#0F5C56"/>
	</linearGradient>
	<radialGradient id="sol52-flare" cx="0.5" cy="0.5" r="0.5" gradientUnits="objectBoundingBox">
		<stop offset="0%" style="stop-color:#FFFFFF;stop-opacity:0.95"/>
		<stop offset="40%" style="stop-color:#FFFBEB;stop-opacity:0.35"/>
		<stop offset="100%" style="stop-color:#FDE047;stop-opacity:0"/>
	</radialGradient>
</defs>
<g>
	<g>
		<path class="sol" d="M176.7,96.9c-5.01,1.14-10.17,1.48-14.99,3.55c-17.71,7.62-27.49,25.56-23.97,44.23
			c3.5,18.58,20.15,32.89,39.24,33.01c36.79,0.22,73.59,0.03,110.38,0.12c34.39,0.08,65.68,25.43,73.15,59.09
			c7.5,33.84-9.65,69.49-40.67,84.31c-7.41,3.54-15.26,5.67-23.47,6.34c-1.45-0.57-2.96-0.32-4.44-0.32
			c-60.34-0.01-120.68-0.01-181.02,0c-1.48,0-3-0.3-4.42,0.39c-2.03-2.66-0.81-5.72-0.89-8.57c-0.2-6.66,0.15-13.33-0.14-19.98
			c-0.16-3.75,1.03-4.85,4.77-4.83c26.15,0.15,52.3,0.09,78.45,0.1c32.65,0.01,65.3-0.28,97.94,0.13
			c21.68,0.27,39.68-16.45,41.61-36.76c2.13-22.36-13.22-41.98-35.19-45.58c-2.28-0.37-4.64-0.39-6.97-0.39
			c-36.14-0.03-72.29,0.06-108.43-0.07c-49.51-0.17-85.23-47.01-72.46-94.86c7.87-29.51,36.53-52.86,67.1-53.1
			c58.79-0.46,117.59-0.17,176.39-0.17c2.12,0,4.73-0.46,3.85,3.2c-1.27,7.92-0.33,15.89-0.55,23.83c-0.16,5.69-0.04,5.7-5.59,5.7
			c-54.78,0-109.56-0.01-164.34,0.03C180.25,96.3,178.35,95.66,176.7,96.9z"/>
		<path class="c52" d="M1011.71,66.99c34.83,0,69.66-0.01,104.48,0c6.58,0,6.77,0.18,6.8,6.67c0.04,7-0.22,14.01,0.08,20.99
			c0.21,4.8-1.51,6.27-6.31,6.26c-44.66-0.15-89.32-0.09-133.98-0.09c-14.5,0-29,0.14-43.49-0.09c-4.48-0.07-6.08,1.22-6.04,5.91
			c0.21,22.66,0.22,45.32,0,67.98c-0.05,4.77,1.31,6.25,6.17,6.23c37.66-0.18,75.32-0.13,112.98-0.08
			c36.93,0.05,67.51,25.2,73.41,61.7c7.34,45.36-25.8,80.71-62.42,84.53c-4.49,0.47-8.95,0.75-13.46,0.74
			c-47.66-0.11-95.31-0.19-142.97-0.28c-6.81-0.01-6.82-0.03-6.84-6.99c-0.01-6.5,0.01-13,0.03-19.49c0.03-7.22,0.04-7.25,7.08-7.25
			c39.49,0.03,78.99,0.07,118.48,0.12c9.5,0.01,19,0.13,28.5,0.1c21.77-0.07,39.7-18.08,39.78-39.9
			c0.07-20.85-18.02-39.34-39.3-39.46c-40.83-0.23-81.65-0.13-122.48-0.06c-9.97,0.02-18.78-2.26-25.38-10.38
			c-4.25-5.24-6.69-11.1-6.7-17.88c-0.02-37.82,0.06-75.65-0.1-113.47c-0.02-4.76,1.79-5.89,6.17-5.88
			C941.39,67.05,976.55,66.99,1011.71,66.99z"/>
		<path class="c52" d="M1281.83,326.96c-35.98,0-71.97,0.01-107.95-0.01c-6.73,0-6.77-0.03-6.77-6.56
			c-0.02-21.49-0.09-42.98,0.01-64.46c0.18-37.76,32.36-70.17,70.17-70.46c27.99-0.21,55.98,0.06,83.96-0.07
			c20.62-0.1,37.15-13.42,41.47-33.04c5.98-27.16-13.28-51.47-41.03-51.52c-47.15-0.08-94.29,0-141.44,0.01
			c-7.48,0-8.09-0.86-5.82-8.08c4.84-15.37,17.89-25.08,34.04-25.1c37.98-0.05,75.98,0.58,113.95-0.16
			c50.84-1,90.01,52.19,69.45,103.64c-10.62,26.56-38.47,48.52-70.87,47.74c-26.31-0.63-52.64-0.12-78.96-0.12
			c-25.63,0-42.56,16.92-42.57,42.56c0,8.66,0.29,17.34-0.1,25.98c-0.23,5.19,1.67,6.41,6.6,6.4c60.47-0.14,120.95-0.08,181.42-0.07
			c1.33,0,2.68,0.12,4-0.01c3.81-0.4,4.91,1.47,4.85,5.01c-0.15,7.83-0.16,15.66,0.02,23.48c0.09,3.68-1.31,5.01-4.97,4.95
			c-9.16-0.17-18.32-0.07-27.49-0.07c-27.32,0-54.64,0-81.96,0C1281.83,326.98,1281.83,326.97,1281.83,326.96z"/>
		<path class="sol" fill-rule="evenodd" clip-rule="evenodd" d="M468.45,327.54c-35.88-3.87-63.22-33.94-63.49-69.97
			c-0.12-16.49-0.12-32.99,0-49.48c0.29-39.68,31.48-71.02,71.19-71.29c31.32-0.21,62.65-0.22,93.98,0.02
			c39.8,0.3,71.13,32.06,71.23,71.88c0.04,16.33,0.12,32.66-0.02,48.98c-0.3,35.86-27.95,66.44-63,69.85
			c-1.12-0.48-2.3-0.32-3.45-0.32c-34.32-0.01-68.65-0.01-102.97,0C470.75,327.22,469.56,327.05,468.45,327.54z
			M522.88,294.38c-15.49,0-30.98,0.03-46.47-0.01c-21.31-0.04-37.75-16.28-37.89-37.53c-0.11-16.32-0.12-32.64,0-48.96
			c0.15-20.43,16.96-37.03,37.43-37.06c31.14-0.04,62.29-0.05,93.43,0c22.11,0.04,38.36,16.46,38.36,38.58
			c-0.01,15.65,0,31.31,0.01,46.96c0.01,21.3-16.06,37.66-37.4,37.96c-7.99,0.11-15.99,0.05-23.98,0.05
			C538.54,294.38,530.71,294.38,522.88,294.38z"/>
		<path class="sol" d="M724.37,195.53c0,42.46-0.06,84.93,0.09,127.39c0.02,4.44-0.98,6.15-5.76,5.9c-7.97-0.42-16-0.45-23.97,0.01
			c-4.92,0.28-5.69-1.68-5.68-5.97c0.11-61.28,0.06-122.56,0.07-183.85c0-23.65,0.1-47.29-0.05-70.94
			c-0.03-4.01,0.94-5.61,5.25-5.43c7.98,0.33,16,0.34,23.97-0.01c4.68-0.21,6.2,1.04,6.18,6c-0.21,42.3-0.12,84.59-0.12,126.89
			C724.36,195.53,724.36,195.53,724.37,195.53z"/>
		<path class="dot" d="M778.3,298.07c0.06-15.84,13.45-29.42,28.81-29.23c15.19,0.19,29.27,14.65,29.16,29.96
			c-0.11,15.59-13.44,28.71-29.31,28.86C790.91,327.8,778.24,314.72,778.3,298.07z"/>
		<g class="dot-flare">
			<circle cx="792.8" cy="298" r="6" fill="url(#sol52-flare)"/>
			<circle cx="792.8" cy="298" r="2.1" fill="#FFFCF5"/>
			<g transform="translate(792.8,298)">
				<path d="M0,-11 L0,11 M-11,0 L11,0" fill="none" stroke="#FFFCF5" stroke-opacity="0.2" stroke-width="1" stroke-linecap="round"/>
				<path d="M0,-7 L0,7 M-7,0 L7,0" fill="none" stroke="#FEF9C3" stroke-opacity="0.14" stroke-width="0.75" stroke-linecap="round" transform="rotate(45)"/>
			</g>
		</g>
		<path class="sol" d="M176.7,96.9c1.88-1.13,1.88-1.14,4.74-1.14c53.71,0,107.43,0,161.14,0c8.82,0,8.62-0.01,8.9-8.76
			c0.21-6.76-1.23-13.61,1.01-20.27c0.1,8.97,0.12,17.95,0.36,26.92c0.1,3.59-2.06,3.47-4.53,3.46c-20.79-0.02-41.58-0.01-62.37,0
			c-34.93,0.01-69.85,0.01-104.78,0.01C179.69,97.12,178.2,96.98,176.7,96.9z"/>
		<path class="sol" d="M106.48,327.61c2.01-1.06,4.2-0.88,6.36-0.88c59.05-0.01,118.11-0.01,177.16,0c2.15,0,4.34-0.18,6.37,0.81
			c-18.82,0.11-37.64,0.29-56.46,0.3c-42.81,0.04-85.63,0-128.44-0.02C109.8,327.83,108.14,327.68,106.48,327.61z"/>
		<path class="sol" d="M468.45,327.54c2.03-0.99,4.21-0.82,6.36-0.82c32.38,0,64.77,0,97.15,0c2.15,0,4.33-0.16,6.37,0.81
			c-27.64,0.1-55.28,0.23-82.92,0.29C486.43,327.84,477.44,327.64,468.45,327.54z"/>
	</g>
	<g>
		<path class="tag" d="M247.63,419.85c0,2.58-0.93,4.61-2.78,6.09s-4.44,2.23-7.74,2.23c-3.05,0-5.74-0.57-8.09-1.72v-5.62
			c1.93,0.86,3.56,1.46,4.89,1.82c1.33,0.35,2.56,0.53,3.66,0.53c1.33,0,2.35-0.25,3.06-0.76c0.71-0.51,1.06-1.26,1.06-2.27
			c0-0.56-0.16-1.06-0.47-1.49s-0.77-0.86-1.38-1.26s-1.84-1.05-3.7-1.93c-1.75-0.82-3.05-1.61-3.93-2.36
			c-0.87-0.75-1.57-1.63-2.09-2.64c-0.52-1-0.78-2.17-0.78-3.52c0-2.53,0.86-4.51,2.57-5.96c1.71-1.45,4.08-2.17,7.1-2.17
			c1.48,0,2.9,0.18,4.25,0.53s2.76,0.85,4.23,1.48l-1.95,4.71c-1.52-0.62-2.78-1.06-3.78-1.31s-1.98-0.37-2.94-0.37
			c-1.15,0-2.02,0.27-2.64,0.8c-0.61,0.53-0.92,1.23-0.92,2.09c0,0.53,0.12,1,0.37,1.4c0.25,0.4,0.64,0.78,1.18,1.15
			c0.54,0.37,1.82,1.04,3.84,2c2.67,1.28,4.5,2.56,5.49,3.84C247.14,416.42,247.63,417.99,247.63,419.85z"/>
		<path class="tag" d="M284.19,416.82c0,3.55-0.94,6.33-2.81,8.34s-4.49,3.01-7.83,3.01c-2.1,0-3.95-0.46-5.55-1.38
			s-2.83-2.24-3.69-3.96s-1.29-3.72-1.29-6.02c0-3.57,0.93-6.34,2.79-8.32c1.86-1.98,4.48-2.97,7.85-2.97c2.1,0,3.95,0.46,5.55,1.37
			s2.83,2.22,3.69,3.93S284.19,414.53,284.19,416.82z M269.09,416.82c0,2.16,0.35,3.8,1.06,4.9c0.71,1.11,1.87,1.66,3.47,1.66
			c1.59,0,2.73-0.55,3.43-1.65c0.7-1.1,1.04-2.74,1.04-4.91c0-2.16-0.35-3.78-1.05-4.86s-1.86-1.62-3.46-1.62
			c-1.59,0-2.73,0.54-3.44,1.61S269.09,414.65,269.09,416.82z"/>
		<path class="tag" d="M307.06,427.78h-5.96v-30.39h5.96V427.78z"/>
		<path class="tag" d="M339.18,427.78l-1.15-2.97h-0.16c-1,1.26-2.03,2.14-3.1,2.63c-1.06,0.49-2.44,0.73-4.15,0.73
			c-2.1,0-3.75-0.6-4.95-1.8c-1.2-1.2-1.81-2.9-1.81-5.12c0-2.32,0.81-4.03,2.43-5.13s4.07-1.71,7.33-1.83l3.79-0.12v-0.96
			c0-2.21-1.13-3.32-3.4-3.32c-1.75,0-3.8,0.53-6.15,1.58l-1.97-4.02c2.51-1.32,5.3-1.97,8.36-1.97c2.93,0,5.18,0.64,6.74,1.91
			s2.34,3.22,2.34,5.82v14.55H339.18z M337.42,417.66l-2.3,0.08c-1.73,0.05-3.02,0.36-3.87,0.94c-0.85,0.57-1.27,1.45-1.27,2.62
			c0,1.68,0.96,2.52,2.89,2.52c1.38,0,2.48-0.4,3.31-1.19c0.83-0.79,1.24-1.85,1.24-3.16V417.66z"/>
		<path class="tag" d="M373.66,405.53c0.81,0,1.48,0.06,2.01,0.18l-0.45,5.59c-0.48-0.13-1.07-0.2-1.76-0.2
			c-1.9,0-3.38,0.49-4.44,1.46c-1.06,0.98-1.59,2.34-1.59,4.1v11.11h-5.96v-21.84h4.51l0.88,3.67h0.29
			c0.68-1.22,1.59-2.21,2.74-2.96S372.31,405.53,373.66,405.53z"/>
		<path class="tag" d="M414.5,427.78v-28.55h6.05v28.55H414.5z"/>
		<path class="tag" d="M459.43,427.78h-5.96v-12.75c0-1.58-0.28-2.76-0.84-3.54c-0.56-0.79-1.45-1.18-2.68-1.18
			c-1.67,0-2.87,0.56-3.61,1.67s-1.11,2.96-1.11,5.54v10.27h-5.96v-21.84h4.55l0.8,2.79h0.33c0.66-1.05,1.58-1.85,2.74-2.39
			c1.17-0.54,2.49-0.81,3.97-0.81c2.54,0,4.47,0.69,5.78,2.06c1.31,1.37,1.97,3.36,1.97,5.95V427.78z"/>
		<path class="tag" d="M486.76,423.42c1.04,0,2.29-0.23,3.75-0.68v4.43c-1.48,0.66-3.31,1-5.47,1c-2.38,0-4.12-0.6-5.21-1.81
			c-1.09-1.2-1.63-3.01-1.63-5.42v-10.53h-2.85v-2.52l3.28-1.99l1.72-4.61h3.81v4.65h6.11v4.47h-6.11v10.53
			c0,0.85,0.24,1.47,0.71,1.88C485.35,423.22,485.98,423.42,486.76,423.42z"/>
		<path class="tag" d="M516.81,428.17c-3.52,0-6.26-0.97-8.24-2.91c-1.98-1.94-2.97-4.69-2.97-8.24c0-3.66,0.91-6.49,2.74-8.49
			c1.83-2,4.36-3,7.59-3c3.09,0,5.49,0.88,7.21,2.64s2.58,4.19,2.58,7.29v2.89h-14.08c0.06,1.69,0.57,3.01,1.5,3.96
			s2.25,1.43,3.95,1.43c1.31,0,2.56-0.14,3.73-0.41s2.4-0.71,3.67-1.31v4.61c-1.04,0.52-2.16,0.91-3.34,1.16
			C519.96,428.04,518.51,428.17,516.81,428.17z M515.97,409.77c-1.26,0-2.25,0.4-2.97,1.2c-0.72,0.8-1.13,1.94-1.23,3.41h8.36
			c-0.03-1.47-0.41-2.61-1.15-3.41S517.23,409.77,515.97,409.77z"/>
		<path class="tag" d="M548.51,427.78h-5.96v-30.39h5.96V427.78z"/>
		<path class="tag" d="M572.72,427.78h-5.96v-30.39h5.96V427.78z"/>
		<path class="tag" d="M590.72,400.3c0-1.94,1.08-2.91,3.24-2.91c2.16,0,3.24,0.97,3.24,2.91c0,0.92-0.27,1.64-0.81,2.16
			c-0.54,0.51-1.35,0.77-2.43,0.77C591.8,403.23,590.72,402.25,590.72,400.3z M596.93,427.78h-5.96v-21.84h5.96V427.78z"/>
		<path class="tag" d="M634.18,405.94v3.03l-3.42,0.88c0.62,0.98,0.94,2.07,0.94,3.28c0,2.34-0.82,4.17-2.45,5.48
			c-1.63,1.31-3.9,1.96-6.81,1.96l-1.07-0.06l-0.88-0.1c-0.61,0.47-0.92,0.99-0.92,1.56c0,0.86,1.09,1.29,3.28,1.29h3.71
			c2.4,0,4.22,0.51,5.48,1.54c1.26,1.03,1.88,2.54,1.88,4.53c0,2.55-1.06,4.53-3.19,5.94s-5.19,2.11-9.17,2.11
			c-3.05,0-5.37-0.53-6.98-1.59c-1.61-1.06-2.41-2.55-2.41-4.46c0-1.32,0.41-2.42,1.23-3.3s2.02-1.52,3.61-1.89
			c-0.61-0.26-1.15-0.69-1.6-1.28c-0.46-0.59-0.68-1.22-0.68-1.88c0-0.83,0.24-1.53,0.72-2.08c0.48-0.55,1.18-1.1,2.09-1.63
			c-1.15-0.5-2.05-1.29-2.72-2.38c-0.67-1.09-1.01-2.38-1.01-3.87c0-2.38,0.77-4.23,2.32-5.53c1.55-1.3,3.76-1.95,6.64-1.95
			c0.61,0,1.34,0.06,2.18,0.17s1.38,0.19,1.61,0.24H634.18z M617.33,430.87c0,0.82,0.39,1.46,1.18,1.93c0.79,0.47,1.89,0.7,3.31,0.7
			c2.14,0,3.81-0.29,5.02-0.88s1.82-1.39,1.82-2.4c0-0.82-0.36-1.39-1.07-1.7c-0.72-0.31-1.82-0.47-3.32-0.47h-3.09
			c-1.09,0-2.01,0.26-2.74,0.77C617.69,429.34,617.33,430.02,617.33,430.87z M619.49,413.09c0,1.18,0.27,2.12,0.81,2.81
			c0.54,0.69,1.36,1.04,2.47,1.04c1.12,0,1.94-0.34,2.46-1.04c0.52-0.69,0.78-1.63,0.78-2.81c0-2.63-1.08-3.95-3.24-3.95
			C620.59,409.15,619.49,410.46,619.49,413.09z"/>
		<path class="tag" d="M659.66,428.17c-3.52,0-6.26-0.97-8.24-2.91s-2.97-4.69-2.97-8.24c0-3.66,0.92-6.49,2.74-8.49s4.36-3,7.59-3
			c3.09,0,5.49,0.88,7.21,2.64s2.58,4.19,2.58,7.29v2.89h-14.08c0.07,1.69,0.57,3.01,1.5,3.96s2.25,1.43,3.95,1.43
			c1.32,0,2.56-0.14,3.73-0.41s2.4-0.71,3.67-1.31v4.61c-1.04,0.52-2.16,0.91-3.34,1.16S661.36,428.17,659.66,428.17z
			 M658.82,409.77c-1.26,0-2.25,0.4-2.97,1.2s-1.13,1.94-1.23,3.41h8.36c-0.03-1.47-0.41-2.61-1.15-3.41
			S660.08,409.77,658.82,409.77z"/>
		<path class="tag" d="M705.56,427.78h-5.96v-12.75c0-1.58-0.28-2.76-0.84-3.54s-1.45-1.18-2.68-1.18c-1.67,0-2.87,0.56-3.61,1.67
			s-1.11,2.96-1.11,5.54v10.27h-5.96v-21.84h4.55l0.8,2.79h0.33c0.66-1.05,1.58-1.85,2.74-2.39s2.49-0.81,3.97-0.81
			c2.54,0,4.47,0.69,5.78,2.06s1.97,3.36,1.97,5.95V427.78z"/>
		<path class="tag" d="M732.56,428.17c-6.8,0-10.2-3.73-10.2-11.19c0-3.71,0.92-6.55,2.77-8.51s4.5-2.94,7.95-2.94
			c2.53,0,4.79,0.5,6.8,1.48l-1.76,4.61c-0.94-0.38-1.81-0.69-2.62-0.93s-1.61-0.36-2.42-0.36c-3.1,0-4.65,2.2-4.65,6.6
			c0,4.27,1.55,6.41,4.65,6.41c1.15,0,2.21-0.15,3.18-0.46s1.95-0.78,2.93-1.44v5.1c-0.96,0.61-1.94,1.04-2.92,1.27
			S734.06,428.17,732.56,428.17z"/>
		<path class="tag" d="M766.15,428.17c-3.52,0-6.26-0.97-8.24-2.91s-2.97-4.69-2.97-8.24c0-3.66,0.92-6.49,2.74-8.49s4.36-3,7.59-3
			c3.09,0,5.49,0.88,7.21,2.64s2.58,4.19,2.58,7.29v2.89h-14.08c0.07,1.69,0.57,3.01,1.5,3.96s2.25,1.43,3.95,1.43
			c1.32,0,2.56-0.14,3.73-0.41s2.4-0.71,3.67-1.31v4.61c-1.04,0.52-2.16,0.91-3.34,1.16S767.85,428.17,766.15,428.17z
			 M765.31,409.77c-1.26,0-2.25,0.4-2.97,1.2s-1.13,1.94-1.23,3.41h8.36c-0.03-1.47-0.41-2.61-1.15-3.41
			S766.57,409.77,765.31,409.77z"/>
		<path class="tag" d="M791.06,424.99c0-1.09,0.29-1.92,0.88-2.48s1.44-0.84,2.56-0.84c1.08,0,1.92,0.29,2.51,0.86
			s0.89,1.39,0.89,2.46c0,1.03-0.3,1.84-0.9,2.43s-1.43,0.89-2.5,0.89c-1.09,0-1.94-0.29-2.54-0.87S791.06,426.04,791.06,424.99z"/>
		<path class="tag" d="M849.18,427.78h-6.05v-23.52h-7.75v-5.04h21.56v5.04h-7.75V427.78z"/>
		<path class="tag" d="M892.7,416.82c0,3.55-0.94,6.33-2.81,8.34s-4.49,3.01-7.83,3.01c-2.1,0-3.95-0.46-5.55-1.38
			s-2.83-2.24-3.69-3.96s-1.29-3.72-1.29-6.02c0-3.57,0.93-6.34,2.79-8.32s4.48-2.97,7.85-2.97c2.1,0,3.95,0.46,5.55,1.37
			s2.83,2.22,3.69,3.93S892.7,414.53,892.7,416.82z M877.6,416.82c0,2.16,0.35,3.8,1.06,4.9s1.87,1.66,3.47,1.66
			c1.59,0,2.73-0.55,3.43-1.65s1.04-2.74,1.04-4.91c0-2.16-0.35-3.78-1.05-4.86s-1.86-1.62-3.46-1.62c-1.59,0-2.73,0.54-3.44,1.61
			S877.6,414.65,877.6,416.82z"/>
		<path class="tag" d="M918.82,423.42c1.04,0,2.29-0.23,3.75-0.68v4.43c-1.48,0.66-3.31,1-5.47,1c-2.38,0-4.12-0.6-5.21-1.81
			s-1.63-3.01-1.63-5.42v-10.53h-2.85v-2.52l3.28-1.99l1.72-4.61h3.81v4.65h6.11v4.47h-6.11v10.53c0,0.85,0.24,1.47,0.71,1.88
			S918.04,423.42,918.82,423.42z"/>
		<path class="tag" d="M952.85,427.78l-1.15-2.97h-0.16c-1,1.26-2.03,2.14-3.1,2.63s-2.44,0.73-4.15,0.73c-2.1,0-3.75-0.6-4.95-1.8
			s-1.81-2.9-1.81-5.12c0-2.32,0.81-4.03,2.43-5.13s4.07-1.71,7.33-1.83l3.79-0.12v-0.96c0-2.21-1.13-3.32-3.4-3.32
			c-1.75,0-3.8,0.53-6.15,1.58l-1.97-4.02c2.51-1.32,5.3-1.97,8.36-1.97c2.93,0,5.18,0.64,6.74,1.91s2.34,3.22,2.34,5.82v14.55
			H952.85z M951.1,417.66l-2.3,0.08c-1.73,0.05-3.02,0.36-3.87,0.94s-1.27,1.45-1.27,2.62c0,1.68,0.96,2.52,2.89,2.52
			c1.38,0,2.48-0.4,3.31-1.19s1.24-1.85,1.24-3.16V417.66z"/>
		<path class="tag" d="M981.1,427.78h-5.96v-30.39h5.96V427.78z"/>
		<path class="tag" d="M1039.07,419.85c0,2.58-0.93,4.61-2.78,6.09s-4.44,2.23-7.74,2.23c-3.05,0-5.74-0.57-8.09-1.72v-5.62
			c1.93,0.86,3.56,1.46,4.89,1.82s2.56,0.53,3.66,0.53c1.33,0,2.35-0.25,3.06-0.76s1.06-1.26,1.06-2.27c0-0.56-0.16-1.06-0.47-1.49
			s-0.77-0.86-1.38-1.26s-1.84-1.05-3.7-1.93c-1.75-0.82-3.05-1.61-3.93-2.36s-1.57-1.63-2.09-2.64s-0.78-2.17-0.78-3.52
			c0-2.53,0.86-4.51,2.57-5.96s4.08-2.17,7.1-2.17c1.48,0,2.9,0.18,4.25,0.53s2.76,0.85,4.23,1.48l-1.95,4.71
			c-1.52-0.62-2.78-1.06-3.78-1.31s-1.98-0.37-2.94-0.37c-1.15,0-2.02,0.27-2.64,0.8s-0.92,1.23-0.92,2.09c0,0.53,0.12,1,0.37,1.4
			s0.64,0.78,1.18,1.15s1.82,1.04,3.84,2c2.67,1.28,4.5,2.56,5.49,3.84S1039.07,417.99,1039.07,419.85z"/>
		<path class="tag" d="M1071.24,427.78l-0.8-2.79h-0.31c-0.64,1.02-1.54,1.8-2.71,2.35s-2.51,0.83-4,0.83c-2.57,0-4.5-0.69-5.8-2.06
			s-1.95-3.35-1.95-5.93v-14.24h5.96v12.75c0,1.58,0.28,2.76,0.84,3.54s1.45,1.18,2.68,1.18c1.67,0,2.87-0.56,3.61-1.67
			s1.11-2.96,1.11-5.54v-10.27h5.96v21.84H1071.24z"/>
		<path class="tag" d="M1106.06,428.17c-2.57,0-4.58-0.93-6.04-2.79h-0.31c0.21,1.82,0.31,2.88,0.31,3.16v8.85h-5.96v-31.45h4.84
			l0.84,2.83h0.27c1.39-2.16,3.46-3.24,6.19-3.24c2.58,0,4.6,1,6.05,2.99s2.19,4.76,2.19,8.3c0,2.33-0.34,4.36-1.03,6.07
			s-1.66,3.03-2.92,3.93S1107.76,428.17,1106.06,428.17z M1104.3,410.3c-1.47,0-2.55,0.45-3.22,1.36s-1.03,2.4-1.05,4.48v0.64
			c0,2.34,0.35,4.02,1.04,5.04s1.8,1.52,3.31,1.52c2.67,0,4-2.2,4-6.6c0-2.15-0.33-3.76-0.99-4.83S1105.71,410.3,1104.3,410.3z"/>
		<path class="tag" d="M1143.37,428.17c-2.57,0-4.58-0.93-6.04-2.79h-0.31c0.21,1.82,0.31,2.88,0.31,3.16v8.85h-5.96v-31.45h4.84
			l0.84,2.83h0.27c1.39-2.16,3.46-3.24,6.19-3.24c2.58,0,4.6,1,6.05,2.99s2.19,4.76,2.19,8.3c0,2.33-0.34,4.36-1.03,6.07
			s-1.66,3.03-2.92,3.93S1145.08,428.17,1143.37,428.17z M1141.61,410.3c-1.47,0-2.55,0.45-3.22,1.36s-1.03,2.4-1.05,4.48v0.64
			c0,2.34,0.35,4.02,1.04,5.04s1.8,1.52,3.31,1.52c2.67,0,4-2.2,4-6.6c0-2.15-0.33-3.76-0.99-4.83S1143.02,410.3,1141.61,410.3z"/>
		<path class="tag" d="M1188.53,416.82c0,3.55-0.94,6.33-2.81,8.34s-4.49,3.01-7.83,3.01c-2.1,0-3.95-0.46-5.55-1.38
			s-2.83-2.24-3.69-3.96s-1.29-3.72-1.29-6.02c0-3.57,0.93-6.34,2.79-8.32s4.48-2.97,7.85-2.97c2.1,0,3.95,0.46,5.55,1.37
			s2.83,2.22,3.69,3.93S1188.53,414.53,1188.53,416.82z M1173.44,416.82c0,2.16,0.35,3.8,1.06,4.9s1.87,1.66,3.47,1.66
			c1.59,0,2.73-0.55,3.43-1.65s1.04-2.74,1.04-4.91c0-2.16-0.35-3.78-1.05-4.86s-1.86-1.62-3.46-1.62c-1.59,0-2.73,0.54-3.44,1.61
			S1173.44,414.65,1173.44,416.82z"/>
		<path class="tag" d="M1217.64,405.53c0.81,0,1.48,0.06,2.01,0.18l-0.45,5.59c-0.48-0.13-1.07-0.2-1.76-0.2
			c-1.9,0-3.38,0.49-4.44,1.46s-1.59,2.34-1.59,4.1v11.11h-5.96v-21.84h4.51l0.88,3.67h0.29c0.68-1.22,1.59-2.21,2.74-2.96
			S1216.29,405.53,1217.64,405.53z"/>
		<path class="tag" d="M1244.82,423.42c1.04,0,2.29-0.23,3.75-0.68v4.43c-1.48,0.66-3.31,1-5.47,1c-2.38,0-4.12-0.6-5.21-1.81
			s-1.63-3.01-1.63-5.42v-10.53h-2.85v-2.52l3.28-1.99l1.72-4.61h3.81v4.65h6.11v4.47h-6.11v10.53c0,0.85,0.24,1.47,0.71,1.88
			S1244.04,423.42,1244.82,423.42z"/>
		<path class="tag" d="M1264.14,424.99c0-1.09,0.29-1.92,0.88-2.48s1.44-0.84,2.56-0.84c1.08,0,1.92,0.29,2.51,0.86
			s0.89,1.39,0.89,2.46c0,1.03-0.3,1.84-0.9,2.43s-1.43,0.89-2.5,0.89c-1.09,0-1.94-0.29-2.54-0.87S1264.14,426.04,1264.14,424.99z"/>
	</g>
</g>
</svg>
