<?xml version="1.0" encoding="UTF-8"?>
<svg xmlns="http://www.w3.org/2000/svg" viewBox="0 0 1500 540" width="1500" height="540" fill="none">
  <defs>
    <linearGradient id="sol52-52-grad" x1="920" y1="200" x2="1260" y2="200" gradientUnits="userSpaceOnUse">
      <stop offset="0%" stop-color="#BEF264"/>
      <stop offset="55%" stop-color="#14B8A6"/>
      <stop offset="100%" stop-color="#0F766E"/>
    </linearGradient>
    <radialGradient id="sol52-bridge-grad" cx="806" cy="312" r="1" gradientUnits="userSpaceOnUse"
        gradientTransform="translate(806 312) scale(340 48) translate(-806 -312)">
      <stop offset="0%" stop-color="#FDE047" stop-opacity="0.42"/>
      <stop offset="35%" stop-color="#FBBF24" stop-opacity="0.18"/>
      <stop offset="100%" stop-color="#F59E0B" stop-opacity="0"/>
    </radialGradient>
    <radialGradient id="sol52-vignette" cx="50%" cy="35%" r="75%">
      <stop offset="0%" stop-color="#0B1E36" stop-opacity="0.65"/>
      <stop offset="100%" stop-color="#030712" stop-opacity="0"/>
    </radialGradient>
    <filter id="sol52-bridge-blur" x="-30%" y="-40%" width="160%" height="180%" color-interpolation-filters="sRGB">
      <feGaussianBlur in="SourceGraphic" stdDeviation="18 9" result="b"/>
    </filter>
    <filter id="sol52-bleed-blur" x="-15%" y="-15%" width="130%" height="130%" color-interpolation-filters="sRGB">
      <feGaussianBlur in="SourceGraphic" stdDeviation="4" result="b"/>
    </filter>
    <filter id="sol52-dot-filter" x="-80%" y="-80%" width="260%" height="260%" color-interpolation-filters="sRGB">
      <feGaussianBlur in="SourceAlpha" stdDeviation="10 5" result="blur"/>
      <feFlood flood-color="#FBBF24" flood-opacity="0.55" result="flood"/>
      <feComposite in="flood" in2="blur" operator="in" result="glow1"/>
      <feGaussianBlur in="SourceAlpha" stdDeviation="22 10" result="blur2"/>
      <feFlood flood-color="#F59E0B" flood-opacity="0.28" result="flood2"/>
      <feComposite in="flood2" in2="blur2" operator="in" result="glow2"/>
      <feMerge>
        <feMergeNode in="glow2"/>
        <feMergeNode in="glow1"/>
        <feMergeNode in="SourceGraphic"/>
      </feMerge>
    </filter>
  </defs>
  <rect width="1500" height="540" fill="#050F1E"/>
  <rect width="1500" height="540" fill="url(#sol52-vignette)"/>
  <ellipse cx="806" cy="312" rx="360" ry="52" fill="url(#sol52-bridge-grad)" filter="url(#sol52-bridge-blur)" opacity="0.95"/>
  <g>
<path fill="#FEF9C3" opacity="0.2" filter="url(#sol52-bleed-blur)" d="M724.37,195.53c0,42.46-0.06,84.93,0.09,127.39c0.02,4.44-0.98,6.15-5.76,5.9c-7.97-0.42-16-0.45-23.97,0.01
			c-4.92,0.28-5.69-1.68-5.68-5.97c0.11-61.28,0.06-122.56,0.07-183.85c0-23.65,0.1-47.29-0.05-70.94
			c-0.03-4.01,0.94-5.61,5.25-5.43c7.98,0.33,16,0.34,23.97-0.01c4.68-0.21,6.2,1.04,6.18,6c-0.21,42.3-0.12,84.59-0.12,126.89
			C724.36,195.53,724.36,195.53,724.37,195.53z"/>
		<path fill="#FEF9C3" opacity="0.2" filter="url(#sol52-bleed-blur)" d="M1011.71,66.99c34.83,0,69.66-0.01,104.48,0c6.58,0,6.77,0.18,6.8,6.67c0.04,7-0.22,14.01,0.08,20.99
			c0.21,4.8-1.51,6.27-6.31,6.26c-44.66-0.15-89.32-0.09-133.98-0.09c-14.5,0-29,0.14-43.49-0.09c-4.48-0.07-6.08,1.22-6.04,5.91
			c0.21,22.66,0.22,45.32,0,67.98c-0.05,4.77,1.31,6.25,6.17,6.23c37.66-0.18,75.32-0.13,112.98-0.08
			c36.93,0.05,67.51,25.2,73.41,61.7c7.34,45.36-25.8,80.71-62.42,84.53c-4.49,0.47-8.95,0.75-13.46,0.74
			c-47.66-0.11-95.31-0.19-142.97-0.28c-6.81-0.01-6.82-0.03-6.84-6.99c-0.01-6.5,0.01-13,0.03-19.49c0.03-7.22,0.04-7.25,7.08-7.25
			c39.49,0.03,78.99,0.07,118.48,0.12c9.5,0.01,19,0.13,28.5,0.1c21.77-0.07,39.7-18.08,39.78-39.9
			c0.07-20.85-18.02-39.34-39.3-39.46c-40.83-0.23-81.65-0.13-122.48-0.06c-9.97,0.02-18.78-2.26-25.38-10.38
			c-4.25-5.24-6.69-11.1-6.7-17.88c-0.02-37.82,0.06-75.65-0.1-113.47c-0.02-4.76,1.79-5.89,6.17-5.88
			C941.39,67.05,976.55,66.99,1011.71,66.99z"/>
  </g>
  <g>
<path fill="#FFFFFF" d="M176.7,96.9c-5.01,1.14-10.17,1.48-14.99,3.55c-17.71,7.62-27.49,25.56-23.97,44.23
			c3.5,18.58,20.15,32.89,39.24,33.01c36.79,0.22,73.59,0.03,110.38,0.12c34.39,0.08,65.68,25.43,73.15,59.09
			c7.5,33.84-9.65,69.49-40.67,84.31c-7.41,3.54-15.26,5.67-23.47,6.34c-1.45-0.57-2.96-0.32-4.44-0.32
			c-60.34-0.01-120.68-0.01-181.02,0c-1.48,0-3-0.3-4.42,0.39c-2.03-2.66-0.81-5.72-0.89-8.57c-0.2-6.66,0.15-13.33-0.14-19.98
			c-0.16-3.75,1.03-4.85,4.77-4.83c26.15,0.15,52.3,0.09,78.45,0.1c32.65,0.01,65.3-0.28,97.94,0.13
			c21.68,0.27,39.68-16.45,41.61-36.76c2.13-22.36-13.22-41.98-35.19-45.58c-2.28-0.37-4.64-0.39-6.97-0.39
			c-36.14-0.03-72.29,0.06-108.43-0.07c-49.51-0.17-85.23-47.01-72.46-94.86c7.87-29.51,36.53-52.86,67.1-53.1
			c58.79-0.46,117.59-0.17,176.39-0.17c2.12,0,4.73-0.46,3.85,3.2c-1.27,7.92-0.33,15.89-0.55,23.83c-0.16,5.69-0.04,5.7-5.59,5.7
			c-54.78,0-109.56-0.01-164.34,0.03C180.25,96.3,178.35,95.66,176.7,96.9z"/>
		<path fill="#FFFFFF" fill-rule="evenodd" clip-rule="evenodd" d="M468.45,327.54c-35.88-3.87-63.22-33.94-63.49-69.97
			c-0.12-16.49-0.12-32.99,0-49.48c0.29-39.68,31.48-71.02,71.19-71.29c31.32-0.21,62.65-0.22,93.98,0.02
			c39.8,0.3,71.13,32.06,71.23,71.88c0.04,16.33,0.12,32.66-0.02,48.98c-0.3,35.86-27.95,66.44-63,69.85
			c-1.12-0.48-2.3-0.32-3.45-0.32c-34.32-0.01-68.65-0.01-102.97,0C470.75,327.22,469.56,327.05,468.45,327.54z
			M522.88,294.38c-15.49,0-30.98,0.03-46.47-0.01c-21.31-0.04-37.75-16.28-37.89-37.53c-0.11-16.32-0.12-32.64,0-48.96
			c0.15-20.43,16.96-37.03,37.43-37.06c31.14-0.04,62.29-0.05,93.43,0c22.11,0.04,38.36,16.46,38.36,38.58
			c-0.01,15.65,0,31.31,0.01,46.96c0.01,21.3-16.06,37.66-37.4,37.96c-7.99,0.11-15.99,0.05-23.98,0.05
			C538.54,294.38,530.71,294.38,522.88,294.38z"/>
		<path fill="#FFFFFF" d="M724.37,195.53c0,42.46-0.06,84.93,0.09,127.39c0.02,4.44-0.98,6.15-5.76,5.9c-7.97-0.42-16-0.45-23.97,0.01
			c-4.92,0.28-5.69-1.68-5.68-5.97c0.11-61.28,0.06-122.56,0.07-183.85c0-23.65,0.1-47.29-0.05-70.94
			c-0.03-4.01,0.94-5.61,5.25-5.43c7.98,0.33,16,0.34,23.97-0.01c4.68-0.21,6.2,1.04,6.18,6c-0.21,42.3-0.12,84.59-0.12,126.89
			C724.36,195.53,724.36,195.53,724.37,195.53z"/>
		<path fill="#FFFFFF" d="M176.7,96.9c1.88-1.13,1.88-1.14,4.74-1.14c53.71,0,107.43,0,161.14,0c8.82,0,8.62-0.01,8.9-8.76
			c0.21-6.76-1.23-13.61,1.01-20.27c0.1,8.97,0.12,17.95,0.36,26.92c0.1,3.59-2.06,3.47-4.53,3.46c-20.79-0.02-41.58-0.01-62.37,0
			c-34.93,0.01-69.85,0.01-104.78,0.01C179.69,97.12,178.2,96.98,176.7,96.9z"/>
		<path fill="#FFFFFF" d="M106.48,327.61c2.01-1.06,4.2-0.88,6.36-0.88c59.05-0.01,118.11-0.01,177.16,0c2.15,0,4.34-0.18,6.37,0.81
			c-18.82,0.11-37.64,0.29-56.46,0.3c-42.81,0.04-85.63,0-128.44-0.02C109.8,327.83,108.14,327.68,106.48,327.61z"/>
		<path fill="#FFFFFF" d="M468.45,327.54c2.03-0.99,4.21-0.82,6.36-0.82c32.38,0,64.77,0,97.15,0c2.15,0,4.33-0.16,6.37,0.81
			c-27.64,0.1-55.28,0.23-82.92,0.29C486.43,327.84,477.44,327.64,468.45,327.54z"/>
<path fill="url(#sol52-52-grad)" d="M1011.71,66.99c34.83,0,69.66-0.01,104.48,0c6.58,0,6.77,0.18,6.8,6.67c0.04,7-0.22,14.01,0.08,20.99
			c0.21,4.8-1.51,6.27-6.31,6.26c-44.66-0.15-89.32-0.09-133.98-0.09c-14.5,0-29,0.14-43.49-0.09c-4.48-0.07-6.08,1.22-6.04,5.91
			c0.21,22.66,0.22,45.32,0,67.98c-0.05,4.77,1.31,6.25,6.17,6.23c37.66-0.18,75.32-0.13,112.98-0.08
			c36.93,0.05,67.51,25.2,73.41,61.7c7.34,45.36-25.8,80.71-62.42,84.53c-4.49,0.47-8.95,0.75-13.46,0.74
			c-47.66-0.11-95.31-0.19-142.97-0.28c-6.81-0.01-6.82-0.03-6.84-6.99c-0.01-6.5,0.01-13,0.03-19.49c0.03-7.22,0.04-7.25,7.08-7.25
			c39.49,0.03,78.99,0.07,118.48,0.12c9.5,0.01,19,0.13,28.5,0.1c21.77-0.07,39.7-18.08,39.78-39.9
			c0.07-20.85-18.02-39.34-39.3-39.46c-40.83-0.23-81.65-0.13-122.48-0.06c-9.97,0.02-18.78-2.26-25.38-10.38
			c-4.25-5.24-6.69-11.1-6.7-17.88c-0.02-37.82,0.06-75.65-0.1-113.47c-0.02-4.76,1.79-5.89,6.17-5.88
			C941.39,67.05,976.55,66.99,1011.71,66.99z"/>
		<path fill="url(#sol52-52-grad)" d="M1281.83,326.96c-35.98,0-71.97,0.01-107.95-0.01c-6.73,0-6.77-0.03-6.77-6.56
			c-0.02-21.49-0.09-42.98,0.01-64.46c0.18-37.76,32.36-70.17,70.17-70.46c27.99-0.21,55.98,0.06,83.96-0.07
			c20.62-0.1,37.15-13.42,41.47-33.04c5.98-27.16-13.28-51.47-41.03-51.52c-47.15-0.08-94.29,0-141.44,0.01
			c-7.48,0-8.09-0.86-5.82-8.08c4.84-15.37,17.89-25.08,34.04-25.1c37.98-0.05,75.98,0.58,113.95-0.16
			c50.84-1,90.01,52.19,69.45,103.64c-10.62,26.56-38.47,48.52-70.87,47.74c-26.31-0.63-52.64-0.12-78.96-0.12
			c-25.63,0-42.56,16.92-42.57,42.56c0,8.66,0.29,17.34-0.1,25.98c-0.23,5.19,1.67,6.41,6.6,6.4c60.47-0.14,120.95-0.08,181.42-0.07
			c1.33,0,2.68,0.12,4-0.01c3.81-0.4,4.91,1.47,4.85,5.01c-0.15,7.83-0.16,15.66,0.02,23.48c0.09,3.68-1.31,5.01-4.97,4.95
			c-9.16-0.17-18.32-0.07-27.49-0.07c-27.32,0-54.64,0-81.96,0C1281.83,326.98,1281.83,326.97,1281.83,326.96z"/>
  </g>
<path fill="#FDE047" filter="url(#sol52-dot-filter)" d="M778.3,298.07c0.06-15.84,13.45-29.42,28.81-29.23c15.19,0.19,29.27,14.65,29.16,29.96
			c-0.11,15.59-13.44,28.71-29.31,28.86C790.91,327.8,778.24,314.72,778.3,298.07z"/>
  <text
    x="750"
    y="498"
    text-anchor="middle"
    font-family="Montserrat, ui-sans-serif, system-ui, sans-serif"
    font-size="26"
    font-weight="500"
    letter-spacing="0.12em"
    fill="#0D9488"
  >smart solar audits</text>
</svg>
